<svg width="49" height="50" viewBox="0 0 49 50" fill="none" xmlns="http://www.w3.org/2000/svg">
<g clip-path="url(#clip0_100130_72)">
<path d="M9.40667 4.62031L8.46969 4L7.51962 4.60003C6.11404 5.48772 4.96106 6.72584 4.17033 8.19284C3.38171 9.65591 2.97941 11.2983 3.00081 12.962V29.3117C2.97991 30.9756 3.38211 32.6182 4.17056 34.0818C4.9591 35.5455 6.10787 36.782 7.50828 37.6705L18.8276 45.0405C20.4092 46.1003 22.2664 46.6667 24.1675 46.6667C26.0686 46.6667 27.926 46.1003 29.5076 45.0405L40.822 37.6708C42.2238 36.7836 43.3738 35.5477 44.1633 34.0836C44.9519 32.6214 45.3547 30.98 45.3341 29.3171V12.962C45.3556 11.2976 44.9528 9.65458 44.1633 8.19124C43.3716 6.72401 42.2172 5.48608 40.8103 4.59924L39.8606 4.00051L38.9245 4.62042L24.1806 14.3837L24.1675 14.375L24.1544 14.3837L9.40667 4.62031Z" stroke="#0A3871" stroke-width="6"/>
</g>
<defs>
<clipPath id="clip0_100130_72">
<rect width="49" height="50" fill="white"/>
</clipPath>
</defs>
</svg>
